<?xml version="1.0" encoding="UTF-8" standalone="no"?>
<svg width="120px" height="123px" viewBox="0 0 120 123" version="1.1" xmlns="http://www.w3.org/2000/svg" xmlns:xlink="http://www.w3.org/1999/xlink">
    <!-- Generator: Sketch 50.2 (55047) - http://www.bohemiancoding.com/sketch -->
    <title>apps copy</title>
    <desc>Created with Sketch.</desc>
    <defs></defs>
    <g id="Welcome" stroke="none" stroke-width="1" fill="none" fill-rule="evenodd">
        <g id="home-1" transform="translate(-1206.000000, -313.000000)" fill="#FFFFFF" fill-rule="nonzero">
            <g id="apps-copy" transform="translate(1206.000000, 313.000000)">
                <path d="M12.8205128,0 C5.75111953,0 0,5.7512094 0,12.8203125 C0,14.1478229 1.07665702,15.2244967 2.40414667,15.2244967 C3.73163633,15.2244967 4.80829334,14.1478229 4.80829334,12.8203125 C4.80829334,8.40262393 8.40249262,4.80836848 12.8205128,4.80836848 C17.238533,4.80836848 20.8327323,8.40262393 20.8327323,12.8203125 C20.8327323,17.238001 17.238533,20.8326572 12.8205128,20.8326572 C11.4930232,20.8326572 10.4163661,21.909331 10.4163661,23.2368414 C10.4163661,24.5643518 11.4930232,25.6410256 12.8205128,25.6410256 C19.8899061,25.6410256 25.6410256,19.8894155 25.6410256,12.8203125 C25.6410256,5.7512094 19.8895054,0 12.8205128,0 Z" id="Shape"></path>
                <path d="M60,0 C52.9306067,0 47.1794872,5.7512094 47.1794872,12.8203125 C47.1794872,19.8894155 52.9310074,25.6410256 60,25.6410256 C67.0689926,25.6410256 72.8205128,19.8894155 72.8205128,12.8203125 C72.8205128,5.7512094 67.0689926,0 60,0 Z M60,20.8326572 C55.5819798,20.8326572 51.9877805,17.2384017 51.9877805,12.8203125 C51.9877805,8.40262393 55.5819798,4.80836848 60,4.80836848 C64.4180202,4.80836848 68.0122195,8.40262393 68.0122195,12.8203125 C68.0122195,17.2384017 64.4180202,20.8326572 60,20.8326572 Z" id="Shape"></path>
                <path d="M107.179487,25.6410256 C114.24888,25.6410256 120,19.8894155 120,12.8203125 C120,5.7512094 114.24888,0 107.179487,0 C100.110094,0 94.3589744,5.7512094 94.3589744,12.8203125 C94.3589744,19.8894155 100.110094,25.6410256 107.179487,25.6410256 Z M107.179487,4.80836848 C111.597107,4.80836848 115.191707,8.40262393 115.191707,12.8203125 C115.191707,17.2384017 111.597507,20.8326572 107.179487,20.8326572 C102.761467,20.8326572 99.1672677,17.2384017 99.1672677,12.8203125 C99.1672677,8.40262393 102.761467,4.80836848 107.179487,4.80836848 Z" id="Shape"></path>
                <path d="M12.8205128,47.1794872 C5.75111953,47.1794872 0,52.9310074 0,60 C0,67.0689926 5.75111953,72.8205128 12.8205128,72.8205128 C19.8899061,72.8205128 25.6410256,67.0689926 25.6410256,60 C25.6410256,52.9310074 19.8895054,47.1794872 12.8205128,47.1794872 Z M12.8205128,68.0122195 C8.40289331,68.0122195 4.80829334,64.4180202 4.80829334,60 C4.80829334,55.5819798 8.40249262,51.9877805 12.8205128,51.9877805 C17.238533,51.9877805 20.8327323,55.5819798 20.8327323,60 C20.8327323,64.4180202 17.238533,68.0122195 12.8205128,68.0122195 Z" id="Shape"></path>
                <path d="M70.4163661,57.5958533 C69.0888765,57.5958533 68.0122195,58.6725103 68.0122195,60 C68.0122195,64.4176195 64.4180202,68.0122195 60,68.0122195 C55.5819798,68.0122195 51.9877805,64.4176195 51.9877805,60 C51.9877805,55.5823805 55.5819798,51.9877805 60,51.9877805 C61.3274897,51.9877805 62.4041467,50.9111235 62.4041467,49.5836339 C62.4041467,48.2561442 61.3274897,47.1794872 60,47.1794872 C52.9306067,47.1794872 47.1794872,52.9310074 47.1794872,60 C47.1794872,67.0689926 52.9310074,72.8205128 60,72.8205128 C67.0689926,72.8205128 72.8205128,67.0689926 72.8205128,60 C72.8205128,58.6721097 71.7438558,57.5958533 70.4163661,57.5958533 Z" id="Shape"></path>
                <path d="M107.179487,47.1794872 C100.110094,47.1794872 94.3589744,52.9310074 94.3589744,60 C94.3589744,67.0689926 100.110495,72.8205128 107.179487,72.8205128 C114.24848,72.8205128 120,67.0689926 120,60 C120,52.9310074 114.24888,47.1794872 107.179487,47.1794872 Z M107.179487,68.0122195 C102.761467,68.0122195 99.1672677,64.4180202 99.1672677,60 C99.1672677,55.5819798 102.761467,51.9877805 107.179487,51.9877805 C111.597107,51.9877805 115.191707,55.5819798 115.191707,60 C115.191707,64.4180202 111.597107,68.0122195 107.179487,68.0122195 Z" id="Shape"></path>
                <path d="M12.8205128,96.4102564 C5.75111953,96.4102564 0,102.161867 0,109.23097 C0,116.300073 5.75111953,122.051282 12.8205128,122.051282 C19.8899061,122.051282 25.6410256,116.300073 25.6410256,109.23097 C25.6410256,102.161867 19.8895054,96.4102564 12.8205128,96.4102564 Z M12.8205128,117.242914 C8.40289331,117.242914 4.80829334,113.648658 4.80829334,109.23097 C4.80829334,104.81288 8.40249262,101.218625 12.8205128,101.218625 C17.238533,101.218625 20.8327323,104.81288 20.8327323,109.23097 C20.8327323,113.648658 17.238533,117.242914 12.8205128,117.242914 Z" id="Shape"></path>
                <path d="M60,96.4102564 C52.9306067,96.4102564 47.1794872,102.161867 47.1794872,109.23097 C47.1794872,116.300073 52.9310074,122.051282 60,122.051282 C67.0689926,122.051282 72.8205128,116.300073 72.8205128,109.23097 C72.8205128,102.161867 67.0689926,96.4102564 60,96.4102564 Z M60,117.242914 C55.5819798,117.242914 51.9877805,113.648658 51.9877805,109.23097 C51.9877805,104.81288 55.5819798,101.218625 60,101.218625 C64.4180202,101.218625 68.0122195,104.81288 68.0122195,109.23097 C68.0122195,113.648658 64.4180202,117.242914 60,117.242914 Z" id="Shape"></path>
                <path d="M107.179487,96.4102564 C100.110094,96.4102564 94.3589744,102.161867 94.3589744,109.23097 C94.3589744,116.300073 100.110495,122.051282 107.179487,122.051282 C114.24848,122.051282 120,116.300073 120,109.23097 C120,102.161867 114.24888,96.4102564 107.179487,96.4102564 Z M107.179487,117.242914 C102.761467,117.242914 99.1672677,113.648658 99.1672677,109.23097 C99.1672677,104.81288 102.761467,101.218625 107.179487,101.218625 C111.597107,101.218625 115.191707,104.81288 115.191707,109.23097 C115.191707,113.648658 111.597107,117.242914 107.179487,117.242914 Z" id="Shape"></path>
            </g>
        </g>
    </g>
</svg>